PathFileType	4	(X/Y/Z)	 2.5Hzlow3min.trc
DataRate	CameraRate	NumFrames	NumMarkers	Units	OrigDataRate	OrigDataStartFrame	OrigNumFrames
200	200	10	35	m	200	126	1000
Frame#	Time	C7			LSH			RSH			MAN			RASI			LASI			HIPR			HIPL			RPSI			LPSI			COX			RTHI1			RTHI2			RTHI3			RTHI4			RSHA1			RSHA2			RSHA3			RSHA4			RHEEL			RMET5			RMET1			RTOE			LTHI1			LTHI2			LTHI3			LTHI4			LSHA1			LSHA2			LSHA3			LSHA4			LHEEL			LMET5			LMET1			LTOE			
		X1	Y1	Z1	X2	Y2	Z2	X3	Y3	Z3	X4	Y4	Z4	X5	Y5	Z5	X6	Y6	Z6	X7	Y7	Z7	X8	Y8	Z8	X9	Y9	Z9	X10	Y10	Z10	X11	Y11	Z11	X12	Y12	Z12	X13	Y13	Z13	X14	Y14	Z14	X15	Y15	Z15	X16	Y16	Z16	X17	Y17	Z17	X18	Y18	Z18	X19	Y19	Z19	X20	Y20	Z20	X21	Y21	Z21	X22	Y22	Z22	X23	Y23	Z23	X24	Y24	Z24	X25	Y25	Z25	X26	Y26	Z26	X27	Y27	Z27	X28	Y28	Z28	X29	Y29	Z29	X30	Y30	Z30	X31	Y31	Z31	X32	Y32	Z32	X33	Y33	Z33	X34	Y34	Z34	X35	Y35	Z35	
126	0.6300	-0.331869	1.369490	-0.518500	-0.267839	1.367768	-0.696422	-0.255314	1.337344	-0.353328	-0.201214	1.315742	-0.525338	-0.171881	0.929566	-0.420668	-0.189888	0.927458	-0.648881	-0.235296	0.974725	-0.387666	-0.246984	0.990646	-0.670075	-0.334860	0.958514	-0.471028	-0.341323	0.960702	-0.571951	-0.339364	0.969526	-0.519287	-0.240228	0.720773	-0.357728	-0.212182	0.668349	-0.360478	-0.154427	0.697552	-0.368822	-0.176943	0.754505	-0.367751	-0.255808	0.338340	-0.363681	-0.278645	0.301787	-0.369017	-0.225374	0.278627	-0.387404	-0.207830	0.315021	-0.385036	-0.405183	0.077476	-0.427481	-0.252421	0.026996	-0.380143	-0.227146	0.037545	-0.461201	-0.198898	0.029110	-0.457087	-0.270311	0.733802	-0.710961	-0.247953	0.676265	-0.713107	-0.186064	0.694369	-0.709404	-0.199182	0.752952	-0.706678	-0.327140	0.331832	-0.703391	-0.345328	0.295408	-0.699265	-0.288074	0.272381	-0.712152	-0.276710	0.314909	-0.714346	-0.444210	0.084174	-0.651942	-0.312214	0.029575	-0.722382	-0.264379	0.037917	-0.659893	-0.240673	0.028512	-0.662007	
127	0.6350	-0.332078	1.364585	-0.518396	-0.267912	1.362908	-0.696575	-0.255116	1.332331	-0.353015	-0.200947	1.310675	-0.525253	-0.172150	0.924738	-0.420377	-0.190470	0.922457	-0.649167	-0.235592	0.969321	-0.387163	-0.247596	0.984942	-0.670244	-0.335724	0.953197	-0.470735	-0.342214	0.955245	-0.571697	-0.340084	0.964253	-0.519018	-0.241041	0.716535	-0.357552	-0.212885	0.664148	-0.360096	-0.155114	0.693452	-0.367981	-0.177741	0.750371	-0.367067	-0.255657	0.334308	-0.363551	-0.278626	0.297885	-0.369004	-0.225442	0.274630	-0.387545	-0.207785	0.310978	-0.385038	-0.406394	0.073831	-0.428236	-0.252734	0.026835	-0.379971	-0.227398	0.037543	-0.461105	-0.198935	0.029075	-0.456945	-0.270449	0.728262	-0.711111	-0.247838	0.670878	-0.713415	-0.186026	0.689269	-0.709988	-0.199404	0.747798	-0.707200	-0.326926	0.327850	-0.702715	-0.345190	0.291477	-0.698478	-0.288101	0.268279	-0.711793	-0.276624	0.310780	-0.714041	-0.445345	0.080529	-0.650284	-0.312932	0.029183	-0.722399	-0.264562	0.037882	-0.660000	-0.240621	0.028501	-0.662165	
128	0.6400	-0.332293	1.359811	-0.518292	-0.268062	1.358178	-0.696729	-0.254890	1.327380	-0.352704	-0.200696	1.305712	-0.525181	-0.172458	0.920020	-0.420055	-0.191056	0.917508	-0.649461	-0.235954	0.963977	-0.386639	-0.248236	0.979223	-0.670422	-0.336621	0.948037	-0.470472	-0.343124	0.949920	-0.571451	-0.340818	0.959153	-0.518779	-0.241967	0.712612	-0.357480	-0.213724	0.660259	-0.359788	-0.155933	0.689620	-0.367185	-0.178635	0.746539	-0.366396	-0.255441	0.330308	-0.363506	-0.278500	0.294010	-0.369109	-0.225401	0.270742	-0.387874	-0.207664	0.307040	-0.385219	-0.407472	0.070385	-0.429163	-0.253046	0.026765	-0.379901	-0.227608	0.037518	-0.461062	-0.198941	0.029046	-0.456804	-0.270693	0.722951	-0.711178	-0.247881	0.665709	-0.713626	-0.186135	0.684353	-0.710530	-0.199739	0.742842	-0.707733	-0.326705	0.323850	-0.702072	-0.344997	0.287517	-0.697694	-0.288020	0.264215	-0.711326	-0.276494	0.306693	-0.713678	-0.446342	0.076991	-0.648532	-0.313601	0.028881	-0.722328	-0.264703	0.037861	-0.660079	-0.240568	0.028512	-0.662324	
129	0.6450	-0.332500	1.355225	-0.518184	-0.268297	1.353612	-0.696882	-0.254663	1.322545	-0.352393	-0.200464	1.300903	-0.525126	-0.172805	0.915475	-0.419708	-0.191630	0.912672	-0.649753	-0.236412	0.958752	-0.386100	-0.248892	0.973553	-0.670606	-0.337519	0.943127	-0.470275	-0.344025	0.944805	-0.571230	-0.341524	0.954332	-0.518585	-0.242982	0.708982	-0.357499	-0.214657	0.656667	-0.359557	-0.156838	0.686086	-0.366402	-0.179602	0.742999	-0.365735	-0.255175	0.326433	-0.363575	-0.278285	0.290242	-0.369350	-0.225253	0.267030	-0.388394	-0.207475	0.303279	-0.385573	-0.408423	0.067221	-0.430275	-0.253367	0.026771	-0.379921	-0.227777	0.037473	-0.461058	-0.198919	0.029020	-0.456660	-0.271062	0.718018	-0.711122	-0.248118	0.660895	-0.713705	-0.186415	0.679741	-0.711020	-0.200192	0.738201	-0.708243	-0.326484	0.319925	-0.701467	-0.344786	0.283611	-0.696922	-0.287886	0.260217	-0.710738	-0.276337	0.302686	-0.713244	-0.447200	0.073614	-0.646744	-0.314232	0.028681	-0.722189	-0.264818	0.037858	-0.660121	-0.240521	0.028542	-0.662478	
130	0.6500	-0.332692	1.350892	-0.518070	-0.268634	1.349247	-0.697025	-0.254404	1.317852	-0.352100	-0.200262	1.296281	-0.525083	-0.173193	0.911168	-0.419338	-0.192180	0.908019	-0.650028	-0.236983	0.953742	-0.385565	-0.249566	0.968003	-0.670790	-0.338384	0.938574	-0.470168	-0.344878	0.940000	-0.571058	-0.342167	0.949892	-0.518458	-0.244047	0.705624	-0.357599	-0.215630	0.653364	-0.359432	-0.157790	0.682835	-0.365640	-0.180620	0.739732	-0.365081	-0.254870	0.322792	-0.363780	-0.277993	0.286675	-0.369766	-0.225010	0.263579	-0.389078	-0.207221	0.299780	-0.386096	-0.409243	0.064379	-0.431516	-0.253696	0.026838	-0.380009	-0.227905	0.037423	-0.461087	-0.198881	0.028996	-0.456522	-0.271584	0.713593	-0.710951	-0.248570	0.656549	-0.713632	-0.186883	0.675525	-0.711445	-0.200759	0.733975	-0.708686	-0.326264	0.316149	-0.700870	-0.344576	0.279864	-0.696134	-0.287740	0.256380	-0.710045	-0.276170	0.298818	-0.712735	-0.447930	0.070430	-0.644971	-0.314820	0.028576	-0.721998	-0.264919	0.037864	-0.660125	-0.240487	0.028574	-0.662615	
131	0.6550	-0.332852	1.346891	-0.517948	-0.269060	1.345132	-0.697148	-0.254111	1.313370	-0.351832	-0.200088	1.291921	-0.525061	-0.173609	0.907170	-0.418959	-0.192689	0.903619	-0.650268	-0.237674	0.949050	-0.385057	-0.250255	0.962656	-0.670970	-0.339182	0.934493	-0.470162	-0.345650	0.935616	-0.570955	-0.342711	0.945923	-0.518428	-0.245126	0.702501	-0.357769	-0.216593	0.650325	-0.359404	-0.158724	0.679889	-0.364818	-0.181660	0.736726	-0.364436	-0.254533	0.319490	-0.364137	-0.277634	0.283421	-0.370359	-0.224675	0.260455	-0.389893	-0.206904	0.296605	-0.386760	-0.409920	0.061928	-0.432791	-0.254023	0.026946	-0.380145	-0.228007	0.037366	-0.461165	-0.198834	0.028973	-0.456388	-0.272255	0.709740	-0.710630	-0.249233	0.652725	-0.713402	-0.187541	0.671752	-0.711783	-0.201443	0.730210	-0.709035	-0.326026	0.312626	-0.700227	-0.344367	0.276376	-0.695316	-0.287599	0.252776	-0.709280	-0.275988	0.295183	-0.712157	-0.448541	0.067472	-0.643259	-0.315352	0.028541	-0.721780	-0.265012	0.037873	-0.660102	-0.240462	0.028599	-0.662734	
132	0.6600	-0.332967	1.343285	-0.517814	-0.269556	1.341320	-0.697245	-0.253767	1.309173	-0.351607	-0.199928	1.287922	-0.525069	-0.174047	0.903551	-0.418579	-0.193134	0.899551	-0.650453	-0.238479	0.944798	-0.384597	-0.250941	0.957616	-0.671147	-0.339890	0.930979	-0.470256	-0.346307	0.931756	-0.570929	-0.343139	0.942513	-0.518485	-0.246174	0.699601	-0.357986	-0.217492	0.647519	-0.359477	-0.159628	0.677216	-0.364066	-0.182698	0.733996	-0.363805	-0.254156	0.316643	-0.364613	-0.277207	0.280598	-0.371100	-0.224244	0.257755	-0.390759	-0.206505	0.293847	-0.387525	-0.410452	0.059953	-0.434021	-0.254327	0.027070	-0.380305	-0.228085	0.037301	-0.461273	-0.198781	0.028946	-0.456264	-0.273058	0.706421	-0.710151	-0.250070	0.649393	-0.713012	-0.188358	0.668416	-0.712025	-0.202231	0.726893	-0.709266	-0.325758	0.309446	-0.699518	-0.344153	0.273240	-0.694462	-0.287460	0.249503	-0.708485	-0.275788	0.291874	-0.711511	-0.449054	0.064805	-0.641706	-0.315833	0.028553	-0.721560	-0.265103	0.037878	-0.660057	-0.240454	0.028619	-0.662843	
133	0.6650	-0.333025	1.340131	-0.517666	-0.270092	1.337862	-0.697312	-0.253349	1.305333	-0.351442	-0.199787	1.284366	-0.525095	-0.174487	0.900382	-0.418210	-0.193506	0.895887	-0.650563	-0.239382	0.941100	-0.384197	-0.251601	0.953012	-0.671308	-0.340494	0.928090	-0.470433	-0.346835	0.928503	-0.570991	-0.343471	0.939695	-0.518620	-0.247141	0.696957	-0.358227	-0.218275	0.644991	-0.359637	-0.160440	0.674879	-0.363402	-0.183691	0.731560	-0.363204	-0.253727	0.314336	-0.365154	-0.276704	0.278289	-0.371939	-0.223705	0.255522	-0.391616	-0.205995	0.291576	-0.388289	-0.410830	0.058496	-0.435111	-0.254588	0.027194	-0.380463	-0.228135	0.037233	-0.461397	-0.198723	0.028918	-0.456162	-0.273965	0.703549	-0.709543	-0.251023	0.646483	-0.712464	-0.189286	0.665477	-0.712160	-0.203104	0.723979	-0.709384	-0.325453	0.306704	-0.698746	-0.343918	0.270524	-0.693590	-0.287312	0.246648	-0.707697	-0.275558	0.288988	-0.710815	-0.449485	0.062494	-0.640404	-0.316253	0.028599	-0.721367	-0.265205	0.037875	-0.659992	-0.240470	0.028629	-0.662933	
134	0.6700	-0.333040	1.337491	-0.517505	-0.270634	1.334810	-0.697350	-0.252842	1.301913	-0.351359	-0.199671	1.281306	-0.525138	-0.174902	0.897714	-0.417862	-0.193795	0.892696	-0.650582	-0.240324	0.938071	-0.383881	-0.252213	0.948986	-0.671446	-0.340993	0.925839	-0.470658	-0.347232	0.925908	-0.571131	-0.343732	0.937453	-0.518816	-0.247965	0.694618	-0.358474	-0.218884	0.642780	-0.359883	-0.161108	0.672895	-0.362867	-0.184589	0.729468	-0.362669	-0.253184	0.312582	-0.365730	-0.276095	0.276579	-0.372810	-0.223057	0.253797	-0.392393	-0.205350	0.289832	-0.389004	-0.411037	0.057535	-0.435960	-0.254782	0.027302	-0.380605	-0.228148	0.037168	-0.461524	-0.198647	0.028886	-0.456081	-0.274930	0.701036	-0.708798	-0.252024	0.643931	-0.711760	-0.190273	0.662903	-0.712173	-0.204038	0.721430	-0.709381	-0.325101	0.304436	-0.697917	-0.343639	0.268285	-0.692735	-0.287112	0.244295	-0.706940	-0.275274	0.286605	-0.710085	-0.449841	0.060600	-0.639407	-0.316604	0.028649	-0.721200	-0.265314	0.037862	-0.659914	-0.240505	0.028624	-0.662997	
135	0.6750	-0.333013	1.335387	-0.517331	-0.271126	1.332225	-0.697367	-0.252295	1.299023	-0.351336	-0.199567	1.278803	-0.525198	-0.175260	0.895588	-0.417544	-0.193994	0.890033	-0.650503	-0.241247	0.935768	-0.383646	-0.252726	0.945679	-0.671557	-0.341391	0.924196	-0.470898	-0.347510	0.923971	-0.571326	-0.343929	0.935769	-0.519038	-0.248585	0.692630	-0.358731	-0.219265	0.640921	-0.360205	-0.161574	0.671309	-0.362499	-0.185318	0.727765	-0.362246	-0.252437	0.311393	-0.366400	-0.275377	0.275494	-0.373609	-0.222312	0.252591	-0.393050	-0.204560	0.288594	-0.389623	-0.411092	0.057056	-0.436569	-0.254894	0.027382	-0.380722	-0.228110	0.037111	-0.461648	-0.198535	0.028853	-0.456026	-0.275905	0.698842	-0.707916	-0.253012	0.641722	-0.710925	-0.191264	0.660695	-0.712063	-0.205007	0.719236	-0.709291	-0.324672	0.302695	-0.697086	-0.343283	0.266564	-0.691949	-0.286816	0.242483	-0.706239	-0.274899	0.284777	-0.709348	-0.450119	0.059185	-0.638755	-0.316871	0.028691	-0.721069	-0.265417	0.037839	-0.659835	-0.240550	0.028607	-0.663037	
